HIERARCHY
ROOT Hips
{
	OFFSET -0.001795 -0.223333 0.028219
	CHANNELS 6 Xposition Yposition Zposition Zrotation Yrotation Xrotation 
	JOINT LeftUpLeg
	{
		OFFSET 0.069520 -0.091406 -0.006815
		CHANNELS 3 Zrotation Yrotation Xrotation
		JOINT LeftLeg
		{
			OFFSET 0.034277 -0.375199 -0.004496
			CHANNELS 3 Zrotation Yrotation Xrotation
			JOINT LeftFoot
			{
				OFFSET -0.013596 -0.397961 -0.043693
				CHANNELS 3 Zrotation Yrotation Xrotation
				JOINT LeftToe
				{
					OFFSET 0.026358 -0.055791 0.119288
					CHANNELS 3 Zrotation Yrotation Xrotation
					End Site
					{
						OFFSET 0.000000 0.000000 0.000000
					}
				}
			}
		}
	}
	JOINT RightUpLeg
	{
		OFFSET -0.067670 -0.090522 -0.004320
		CHANNELS 3 Zrotation Yrotation Xrotation
		JOINT RightLeg
		{
			OFFSET -0.038290 -0.382569 -0.008850
			CHANNELS 3 Zrotation Yrotation Xrotation
			JOINT RightFoot
			{
				OFFSET 0.015774 -0.398415 -0.042312
				CHANNELS 3 Zrotation Yrotation Xrotation
				JOINT RightToe
				{
					OFFSET -0.025372 -0.048144 0.123348
					CHANNELS 3 Zrotation Yrotation Xrotation
					End Site
					{
						OFFSET 0.000000 0.000000 0.000000
					}
				}
			}
		}
	}
	JOINT Spine
	{
		OFFSET -0.002533 0.108963 -0.026696
		CHANNELS 3 Zrotation Yrotation Xrotation
		JOINT Spine1
		{
			OFFSET 0.005487 0.135180 0.001092
			CHANNELS 3 Zrotation Yrotation Xrotation
			JOINT Spine2
			{
				OFFSET 0.001457 0.052922 0.025425
				CHANNELS 3 Zrotation Yrotation Xrotation
				JOINT Neck
				{
					OFFSET -0.002778 0.213870 -0.042857
					CHANNELS 3 Zrotation Yrotation Xrotation
					JOINT Head
					{
						OFFSET 0.005152 0.064970 0.051349
						CHANNELS 3 Zrotation Yrotation Xrotation
						End Site
						{
							OFFSET 0.000000 0.000000 0.000000
						}
					}
				}
				JOINT LeftShoulder
				{
					OFFSET 0.078845 0.121749 -0.034090
					CHANNELS 3 Zrotation Yrotation Xrotation
					JOINT LeftArm
					{
						OFFSET 0.090977 0.030469 -0.008868
						CHANNELS 3 Zrotation Yrotation Xrotation
						JOINT LeftForeArm
						{
							OFFSET 0.259612 -0.012772 -0.027456
							CHANNELS 3 Zrotation Yrotation Xrotation
							JOINT LeftHand
							{
								OFFSET 0.249234 0.008986 -0.001171
								CHANNELS 3 Zrotation Yrotation Xrotation
								End Site
								{
									OFFSET 0.000000 0.000000 0.000000
								}
							}
						}
					}
				}
				JOINT RightShoulder
				{
					OFFSET -0.081759 0.118833 -0.038615
					CHANNELS 3 Zrotation Yrotation Xrotation
					JOINT RightArm
					{
						OFFSET -0.096012 0.032551 -0.009143
						CHANNELS 3 Zrotation Yrotation Xrotation
						JOINT RightForeArm
						{
							OFFSET -0.253742 -0.013329 -0.021401
							CHANNELS 3 Zrotation Yrotation Xrotation
							JOINT RightHand
							{
								OFFSET -0.255298 0.007772 -0.005559
								CHANNELS 3 Zrotation Yrotation Xrotation
								End Site
								{
									OFFSET 0.000000 0.000000 0.000000
								}
							}
						}
					}
				}
			}
		}
	}
}
MOTION
Frames: 10
Frame Time: 0.050000
0.539407 0.957447 1.377618 -5.473670 8.013860 1.287854 14.516551 -0.243127 -11.559861 -4.077797 0.317830 7.353297 -3.485385 4.333073 22.767267 0.000000 0.000000 0.000000 -5.891079 0.422805 -7.791126 1.487892 -0.091672 4.939106 0.096435 -6.898464 26.384469 0.000000 0.000000 0.000000 -14.521250 1.867638 29.908871 1.774377 0.272076 -21.907150 -3.449085 7.556472 23.153880 -2.877484 4.184053 -9.132926 0.000000 0.000000 0.000000 -27.682784 -23.463950 8.434334 -40.716862 -40.783976 8.181583 2.190427 -33.304948 0.309721 0.000000 0.000000 0.000000 -1.270608 21.055912 7.405152 25.810643 28.191789 1.948286 8.414572 79.926266 14.321666 0.000000 0.000000 0.000000 
0.540219 0.957295 1.378709 -5.552010 8.110488 1.455608 14.878063 -0.228081 -11.882325 -4.392035 0.363206 7.464763 -3.994443 3.861127 23.355110 0.000000 0.000000 0.000000 -5.714790 0.435036 -7.767229 1.315495 -0.065771 4.786842 -0.050744 -7.055882 26.224895 0.000000 0.000000 0.000000 -14.697081 1.910042 29.922537 1.802665 0.265198 -21.821610 -3.528958 7.600348 23.171446 -2.536461 3.870433 -8.471588 0.000000 0.000000 0.000000 -28.064929 -23.449160 8.401507 -40.315735 -40.548220 8.022713 2.223845 -33.602545 0.298984 0.000000 0.000000 0.000000 -0.793903 20.929867 7.506728 25.898315 28.108965 1.909331 10.118776 80.125192 15.855813 0.000000 0.000000 0.000000 
0.541205 0.957267 1.379551 -5.785691 8.202180 1.604776 15.212078 -0.211045 -12.302455 -4.518339 0.374591 8.135155 -4.215108 3.337021 22.722975 0.000000 0.000000 0.000000 -5.493052 0.458920 -7.927707 1.319415 -0.072583 4.441222 -0.265286 -7.558633 27.354233 0.000000 0.000000 0.000000 -14.894839 1.961994 30.060844 1.836124 0.245935 -21.386906 -3.480522 7.362937 22.720327 -2.533636 3.743119 -7.666092 0.000000 0.000000 0.000000 -27.664498 -23.242030 8.321704 -40.281520 -40.880623 8.121411 2.260499 -33.440790 0.292149 0.000000 0.000000 0.000000 -0.589713 20.905854 7.564715 26.007958 28.297954 1.972710 10.150977 79.951620 15.769404 0.000000 0.000000 0.000000 
0.542232 0.957317 1.380203 -5.895802 8.257933 1.713973 15.480251 -0.200542 -12.429033 -4.741739 0.408023 8.269310 -4.499453 2.868098 22.511515 0.000000 0.000000 0.000000 -5.389741 0.476339 -8.123350 1.269013 -0.064134 4.470150 -0.374805 -7.799247 27.881738 0.000000 0.000000 0.000000 -14.904478 1.963867 30.115863 1.927781 0.220609 -21.389362 -3.553788 7.294657 22.860548 -2.264061 3.427632 -6.684371 0.000000 0.000000 0.000000 -27.597701 -23.235557 8.346410 -40.201132 -40.917238 8.080844 2.579789 -33.542290 0.203303 0.000000 0.000000 0.000000 -0.495807 20.698769 7.514383 26.225401 28.658484 2.070530 12.791839 80.144941 18.064137 0.000000 0.000000 0.000000 
0.543324 0.957534 1.380832 -5.931946 7.977823 1.879439 15.585587 -0.185787 -12.371739 -4.882948 0.437218 8.131155 -4.496871 2.795866 22.455263 0.000000 0.000000 0.000000 -5.300790 0.499790 -8.348893 1.379150 -0.078453 4.561643 -0.784560 -8.418717 27.775789 0.000000 0.000000 0.000000 -15.030902 2.034756 30.108305 1.996289 0.190070 -21.189409 -3.583074 7.346803 22.617236 -2.093474 3.283987 -6.799900 0.000000 0.000000 0.000000 -27.056461 -23.134485 8.299506 -40.388415 -41.539799 8.318058 2.867230 -33.338965 0.121860 0.000000 0.000000 0.000000 -0.531343 20.570272 7.464852 26.400510 29.516954 2.300093 14.498955 81.166188 19.912346 0.000000 0.000000 0.000000 
0.544266 0.957781 1.381473 -5.854048 7.888395 1.897348 15.525597 -0.193658 -12.067212 -4.738414 0.417803 7.921790 -5.052050 1.857264 22.054920 0.000000 0.000000 0.000000 -5.285704 0.500638 -8.310306 1.217611 -0.052377 4.495237 -0.921537 -8.652332 27.904592 0.000000 0.000000 0.000000 -15.090378 2.055112 29.946794 2.016399 0.167953 -20.736131 -3.681180 7.299785 22.443110 -1.922370 3.109850 -6.582096 0.000000 0.000000 0.000000 -26.841089 -23.306601 8.438681 -40.101489 -41.878121 8.343232 3.362482 -33.424050 -0.022970 0.000000 0.000000 0.000000 -0.682266 20.643147 7.447199 26.490503 30.210962 2.494877 16.383894 82.017447 21.851249 0.000000 0.000000 0.000000 
0.545025 0.958131 1.382014 -5.712657 7.805621 1.885763 15.457686 -0.207585 -11.557966 -4.700493 0.417207 7.398306 -5.579193 0.976713 21.738286 0.000000 0.000000 0.000000 -5.425197 0.488798 -8.238305 1.326858 -0.068754 4.541998 -1.205372 -9.041945 27.715395 0.000000 0.000000 0.000000 -15.093048 2.056218 29.745327 1.904179 0.183103 -20.371981 -3.732848 7.502912 22.283383 -1.695415 2.928052 -6.499022 0.000000 0.000000 0.000000 -26.577471 -23.444045 8.445944 -40.110077 -42.461739 8.559168 3.516570 -33.091016 -0.075610 0.000000 0.000000 0.000000 -0.833285 20.659054 7.420564 26.631389 30.801047 2.688028 18.856300 83.154055 24.605804 0.000000 0.000000 0.000000 
0.545501 0.958298 1.382292 -5.564112 7.645401 1.946471 15.232267 -0.213395 -11.439505 -4.559898 0.399205 7.336449 -5.664322 0.751012 21.549790 0.000000 0.000000 0.000000 -5.619315 0.473569 -8.120916 1.403764 -0.081192 4.469586 -1.168273 -8.932498 27.144411 0.000000 0.000000 0.000000 -15.143867 2.078203 29.483304 1.690065 0.221635 -19.883170 -3.703805 7.474210 22.048810 -1.382130 2.713780 -7.003759 0.000000 0.000000 0.000000 -26.008588 -23.355653 8.395284 -40.287628 -43.260160 8.872047 3.625733 -32.657564 -0.103051 0.000000 0.000000 0.000000 -1.509155 20.565664 7.204379 27.226860 31.577537 3.048482 24.443069 84.250047 30.257456 0.000000 0.000000 0.000000 
0.545887 0.958538 1.382210 -5.331425 7.743799 1.784935 15.030433 -0.231622 -11.114538 -4.404909 0.374167 7.292763 -6.345086 -0.356984 21.179789 0.000000 0.000000 0.000000 -5.895044 0.442885 -7.946628 1.430544 -0.083188 4.672019 -1.201579 -8.920718 26.879154 0.000000 0.000000 0.000000 -15.216979 2.086026 29.587617 1.641246 0.238401 -19.951481 -3.810420 7.493761 22.275271 -1.266349 2.670699 -7.321076 0.000000 0.000000 0.000000 -25.501450 -23.663632 8.544319 -40.034228 -43.741475 8.920558 3.916835 -32.281346 -0.189539 0.000000 0.000000 0.000000 -2.263329 20.639460 7.014849 27.836245 32.209972 3.380139 26.746353 85.008415 32.895341 0.000000 0.000000 0.000000 
0.546494 0.958704 1.381705 -5.116597 7.699505 1.681114 14.776022 -0.242129 -10.890103 -4.259591 0.353740 7.204189 -6.739934 -0.957346 21.111840 0.000000 0.000000 0.000000 -6.148706 0.423979 -7.935892 1.527530 -0.098338 4.705736 -1.442173 -9.329431 27.197937 0.000000 0.000000 0.000000 -15.310247 2.113436 29.607815 1.496354 0.268953 -19.693079 -3.794931 7.374267 22.203712 -1.552223 2.884230 -7.361515 0.000000 0.000000 0.000000 -25.310099 -23.743799 8.636924 -39.433934 -44.073175 8.839340 3.861385 -31.741802 -0.164214 0.000000 0.000000 0.000000 -2.974385 20.818389 6.875743 27.938858 32.593868 3.545361 22.240737 85.372597 28.876506 0.000000 0.000000 0.000000 
